<?xml version="1.0" encoding="utf-8"?>
<!-- Generator: Adobe Illustrator 19.2.1, SVG Export Plug-In . SVG Version: 6.00 Build 0)  -->
<svg version="1.1" id="Capa_1" xmlns="http://www.w3.org/2000/svg" xmlns:xlink="http://www.w3.org/1999/xlink" x="0px" y="0px"
	 viewBox="0 0 47.9 47.9" style="enable-background:new 0 0 47.9 47.9;" xml:space="preserve">
<g>
	<g id="Next_Chapter">
		<path d="M23.9,47.9L23.9,47.9c-6.4,0-12.4-2.5-16.9-7c-4.5-4.5-7-10.5-7-16.9C0,17.5,2.5,11.5,7,7c4.5-4.5,10.5-7,16.9-7
			c13.2,0,23.9,10.7,23.9,23.9C47.9,37.1,37.1,47.9,23.9,47.9z M23.9,2C18.1,2,12.6,4.3,8.4,8.4C4.3,12.6,2,18.1,2,23.9
			c0,5.9,2.3,11.4,6.4,15.5c4.1,4.1,9.6,6.4,15.5,6.4v1l0-1c12.1,0,21.9-9.8,21.9-21.9C45.9,11.8,36,2,23.9,2z"/>
		<path d="M16.2,32.7c-0.2,0-0.3,0-0.5-0.1c-0.3-0.2-0.5-0.5-0.5-0.9V15.9c0-0.4,0.2-0.7,0.5-0.9c0.3-0.2,0.7-0.2,1,0.1L28.7,23
			c0.3,0.2,0.4,0.5,0.4,0.8c0,0.3-0.2,0.6-0.4,0.8l-11.9,7.9C16.6,32.7,16.4,32.7,16.2,32.7z M17.2,17.8v12.1l9.1-6L17.2,17.8z"/>
		<path d="M31.4,32.8c-0.6,0-1-0.4-1-1V16c0-0.6,0.4-1,1-1s1,0.4,1,1v15.8C32.4,32.4,31.9,32.8,31.4,32.8z"/>
	</g>
</g>
</svg>
