<?xml version="1.0" encoding="iso-8859-1"?>
<!-- Generator: Adobe Illustrator 19.1.0, SVG Export Plug-In . SVG Version: 6.00 Build 0)  -->
<svg version="1.1" id="Capa_1" xmlns="http://www.w3.org/2000/svg" xmlns:xlink="http://www.w3.org/1999/xlink" x="0px" y="0px"
	 viewBox="0 0 545.244 545.244" style="enable-background:new 0 0 545.244 545.244;" xml:space="preserve">
<g>
	<path d="M445.04,413.042c67.57-70.465,89.771-175.681,50.195-266.417C460.484,64.575,381.331,8.589,292.525,0.867
		S114.914,37.548,67.615,112.839c-48.264,75.292-49.229,173.75-4.826,250.973c49.229,84.945,142.862,128.382,237.459,118.729
		c-12.549,13.514-26.063,27.993-38.611,41.507c-10.618,11.583,6.757,28.958,17.375,17.375
		c19.306-21.236,39.577-42.472,58.882-63.708c4.826-4.826,4.826-12.549,0-17.375c-19.306-21.236-39.577-42.472-58.882-63.708
		c-10.618-11.583-27.993,5.792-17.375,17.375c13.514,15.444,27.993,29.924,41.507,45.368
		c-78.188,9.653-156.375-20.271-204.639-83.979c-49.229-64.674-57.917-154.445-22.201-226.841
		C110.087,78.089,181.518,30.791,259.706,25.964s155.41,33.785,197.883,100.389c55.021,85.91,41.507,197.883-28.958,271.244
		C418.012,407.25,434.421,423.66,445.04,413.042z"/>
	<g>
	</g>
	<g>
	</g>
	<g>
	</g>
	<g>
	</g>
	<g>
	</g>
	<g>
	</g>
	<g>
	</g>
	<g>
	</g>
	<g>
	</g>
	<g>
	</g>
	<g>
	</g>
	<g>
	</g>
	<g>
	</g>
	<g>
	</g>
	<g>
	</g>
</g>
<g>
</g>
<g>
</g>
<g>
</g>
<g>
</g>
<g>
</g>
<g>
</g>
<g>
</g>
<g>
</g>
<g>
</g>
<g>
</g>
<g>
</g>
<g>
</g>
<g>
</g>
<g>
</g>
<g>
</g>
</svg>
