<?xml version="1.0" encoding="iso-8859-1"?>
<!-- Generator: Adobe Illustrator 16.0.0, SVG Export Plug-In . SVG Version: 6.00 Build 0)  -->
<!DOCTYPE svg PUBLIC "-//W3C//DTD SVG 1.1//EN" "http://www.w3.org/Graphics/SVG/1.1/DTD/svg11.dtd">
<svg version="1.1" id="Capa_1" xmlns="http://www.w3.org/2000/svg" xmlns:xlink="http://www.w3.org/1999/xlink" x="0px" y="0px"
	 width="197.962px" height="197.962px" viewBox="0 0 197.962 197.962" style="enable-background:new 0 0 197.962 197.962;"
	 xml:space="preserve">
<g>
	<g>
		<ellipse cx="99.042" cy="16.548" rx="16.77" ry="16.548"/>
		<path d="M42.625,5.552c3.303,0,6.015,2.677,6.015,5.978v22.837c0,0.624,0.505,1.128,1.128,1.128l105.625,0.018
			c3.305,0,5.957,2.66,5.957,5.961v30.144c0,3.301-2.672,5.978-5.976,5.978c-3.301,0-5.974-2.677-5.974-5.978v-23.03
			c0-0.623-0.504-1.128-1.129-1.128H119.14v141.534c0,4.953-4.008,8.968-8.959,8.968c-4.955,0-8.961-4.015-8.961-8.968v-67.729
			h-4.324v67.729c0,4.953-4.007,8.968-8.96,8.968s-8.96-4.015-8.96-8.968V47.454h-36.37c-3.302,0-5.994-2.677-5.994-5.979V11.53
			C36.614,8.229,39.325,5.552,42.625,5.552z"/>
	</g>
</g>
<g>
</g>
<g>
</g>
<g>
</g>
<g>
</g>
<g>
</g>
<g>
</g>
<g>
</g>
<g>
</g>
<g>
</g>
<g>
</g>
<g>
</g>
<g>
</g>
<g>
</g>
<g>
</g>
<g>
</g>
</svg>
