<?xml version="1.0" encoding="utf-8"?>
<!-- Generator: Adobe Illustrator 19.2.1, SVG Export Plug-In . SVG Version: 6.00 Build 0)  -->
<svg version="1.1" id="Calque_1" xmlns="http://www.w3.org/2000/svg" xmlns:xlink="http://www.w3.org/1999/xlink" x="0px" y="0px"
	 viewBox="0 0 314.8 314.8" style="enable-background:new 0 0 314.8 314.8;" xml:space="preserve">
<g>
	<path d="M297.6,2.4c-6.9,0-12.5,5.6-12.5,12.5v45.2c-7.4,0-175.6,0-186,0c-6.9,0-12.5,5.6-12.5,12.5s5.6,12.5,12.5,12.5h89.4
		c0,9.1,0,214.7,0,214.7c0,8.3,6.7,15,15,15s15-6.7,15-15V183.1c0-1.8,1.4-3.2,3.2-3.2c1.8,0,3.2,1.4,3.2,3.2v116.7
		c0,8.3,6.7,15,15,15s15-6.7,15-15c0,0-0.3-204.4-0.3-214.7h42.9c6.9,0,12.5-5.6,12.5-12.5V14.9C310.1,8,304.5,2.4,297.6,2.4z"/>
	<path d="M221.7,51.8c14.3,0,25.9-11.6,25.9-25.9C247.6,11.6,236,0,221.7,0s-25.9,11.6-25.9,25.9C195.8,40.2,207.4,51.8,221.7,51.8z
		"/>
</g>
</svg>
