<?xml version="1.0" encoding="utf-8"?>
<!-- Generator: Adobe Illustrator 19.2.1, SVG Export Plug-In . SVG Version: 6.00 Build 0)  -->
<svg version="1.1" id="Capa_1" xmlns="http://www.w3.org/2000/svg" xmlns:xlink="http://www.w3.org/1999/xlink" x="0px" y="0px"
	 viewBox="0 0 612.4 612.4" style="enable-background:new 0 0 612.4 612.4;" xml:space="preserve">
<g>
	<path d="M522.6,89.8C464.9,32.1,388,0,306.2,0S147.5,32.1,89.8,89.8c-119.4,119.4-119.4,313.4,0,432.8
		c57.7,57.7,134.6,89.8,216.4,89.8s158.7-32.1,216.4-89.8C642.1,403.2,642.1,209.2,522.6,89.8z M501.8,501.8
		c-52.1,52.1-121.8,81-195.6,81s-143.5-28.9-195.6-81s-81-121.8-81-195.6s28.9-143.5,81-195.6s121.9-81,195.6-81
		s143.5,28.9,195.6,81s81,121.9,81,195.6S553.9,449.7,501.8,501.8z"/>
</g>
</svg>
