<?xml version="1.0" encoding="iso-8859-1"?>
<!-- Generator: Adobe Illustrator 16.0.0, SVG Export Plug-In . SVG Version: 6.00 Build 0)  -->
<!DOCTYPE svg PUBLIC "-//W3C//DTD SVG 1.1//EN" "http://www.w3.org/Graphics/SVG/1.1/DTD/svg11.dtd">
<svg version="1.1" id="Capa_1" xmlns="http://www.w3.org/2000/svg" xmlns:xlink="http://www.w3.org/1999/xlink" x="0px" y="0px"
	 width="326.675px" height="326.676px" viewBox="0 0 326.675 326.676" style="enable-background:new 0 0 326.675 326.676;"
	 xml:space="preserve">
<g>
	<path style="fill:#030303;" d="M243.359,216.645c-17.154,0-32.49,7.902-42.588,20.253l-74.346-43.405
		c7.43-9.384,11.905-21.197,11.905-34.065c0-11.928-3.854-22.94-10.33-31.964l70.917-40.178
		c10.007,13.747,26.178,22.735,44.441,22.735c30.334,0,55.013-24.673,55.013-55.01S273.693,0,243.359,0
		c-30.329,0-55.008,24.673-55.008,55.01c0,7.876,1.692,15.359,4.688,22.14l-73.053,41.396c-9.744-8.749-22.572-14.124-36.673-14.124
		c-30.331,0-55.01,24.673-55.01,55.01c0,30.331,24.673,55.01,55.01,55.01c13.123,0,25.165-4.632,34.634-12.322l76.43,44.624
		c-3.82,7.484-6.027,15.941-6.027,24.919c0,30.334,24.679,55.013,55.008,55.013c30.334,0,55.013-24.679,55.013-55.013
		C298.372,241.334,273.693,216.645,243.359,216.645z M243.359,11.71c23.878,0,43.302,19.421,43.302,43.3
		S267.237,98.31,243.359,98.31c-23.879,0-43.297-19.421-43.297-43.299S219.492,11.71,243.359,11.71z M83.32,202.727
		c-23.873,0-43.3-19.418-43.3-43.3c0-23.878,19.421-43.3,43.3-43.3s43.3,19.421,43.3,43.3
		C126.62,183.309,107.192,202.727,83.32,202.727z M243.359,314.954c-23.867,0-43.297-19.425-43.297-43.303
		s19.418-43.297,43.297-43.297c23.878,0,43.302,19.419,43.302,43.297S267.237,314.954,243.359,314.954z"/>
</g>
<g>
</g>
<g>
</g>
<g>
</g>
<g>
</g>
<g>
</g>
<g>
</g>
<g>
</g>
<g>
</g>
<g>
</g>
<g>
</g>
<g>
</g>
<g>
</g>
<g>
</g>
<g>
</g>
<g>
</g>
</svg>
